<?xml version="1.0" encoding="UTF-8"?><svg xmlns="http://www.w3.org/2000/svg" xmlns:xlink="http://www.w3.org/1999/xlink" version="1.1" baseProfile="basic" id="Layer_1" x="0px" y="0px" viewBox="0 0 32 24" xml:space="preserve"><path fill="#825012" d="M16 8l16 8-16 8-16-8z"/><path fill="#825012" d="M16 8l16 8-16 8-16-8z"/><path fill="#F90" d="M12.4 21.2c.1.1.5.2 1 .2s.8-.1 1-.2c0-.1.1-.2.1-.3v-.1c0-.6-.5-1-1.1-1-.6 0-1 .4-1.1 1v.1c.1.1.1.3.1.3z"/><path fill="#539B00" d="M12.9 20l-2.2-1.9 1.5.5-1.4-3.2 1.8 2.6-.6-4.3 1.2 4.6.8-5.3v4.6l1.7-2-1.4 3.6 1.7-1-2 1.8z"/><path fill="#F90" d="M16.4 19.2c.1.1.5.2 1 .2s.8-.1 1-.2c0-.1.1-.2.1-.3v-.1c0-.6-.5-1-1.1-1-.6 0-1 .4-1.1 1v.1c.1.1.1.3.1.3z"/><path fill="#539B00" d="M16.9 18l-2.2-1.9 1.5.5-1.4-3.2 1.8 2.6-.6-4.3 1.2 4.6.8-5.3v4.6l1.7-2-1.4 3.6 1.7-1-2 1.8z"/><g><path fill="#F90" d="M20.4 17.2c.1.1.5.2 1 .2s.8-.1 1-.2c0-.1.1-.2.1-.3v-.1c0-.6-.5-1-1.1-1-.6 0-1 .4-1.1 1v.1c.1.1.1.3.1.3z"/><path fill="#539B00" d="M20.9 16l-2.2-1.9 1.5.5-1.4-3.2 1.8 2.6-.6-4.3 1.2 4.6L22 9v4.6l1.7-2-1.4 3.6 1.7-1-2 1.8z"/></g><g><path fill="#F90" d="M24.4 15.2c.1.1.5.2 1 .2s.8-.1 1-.2c0-.1.1-.2.1-.3v-.1c0-.6-.5-1-1.1-1-.6 0-1 .4-1.1 1v.1c.1.1.1.3.1.3z"/><path fill="#539B00" d="M24.9 14l-2.2-1.9 1.5.5-1.4-3.2 1.8 2.6-.6-4.3 1.2 4.6L26 7v4.6l1.7-2-1.4 3.6 1.7-1-2 1.8z"/></g><g><path fill="#F90" d="M6.4 18.2c.1.1.5.2 1 .2s.8-.1 1-.2c0-.1.1-.2.1-.3v-.1c0-.6-.5-1-1.1-1-.6 0-1 .4-1.1 1v.1c.1.1.1.3.1.3z"/><path fill="#539B00" d="M6.9 17l-2.2-1.9 1.5.5-1.4-3.2L6.6 15 6 10.7l1.2 4.6L8 10v4.6l1.7-2-1.4 3.6 1.7-1L8 17z"/><path fill="#F90" d="M10.4 16.2c.1.1.5.2 1 .2s.8-.1 1-.2c0-.1.1-.2.1-.3v-.1c0-.6-.5-1-1.1-1-.6 0-1 .4-1.1 1v.1c.1.1.1.3.1.3z"/><path fill="#539B00" d="M10.9 15l-2.2-1.9 1.5.5-1.4-3.2 1.8 2.6-.6-4.3 1.2 4.6L12 8v4.6l1.7-2-1.4 3.6 1.7-1-2 1.8z"/><g><path fill="#F90" d="M14.4 14.2c.1.1.5.2 1 .2s.8-.1 1-.2c0-.1.1-.2.1-.3v-.1c0-.6-.5-1-1.1-1-.6 0-1 .4-1.1 1v.1c.1.1.1.3.1.3z"/><path fill="#539B00" d="M14.9 13l-2.2-1.9 1.5.5-1.4-3.2 1.8 2.6-.6-4.3 1.2 4.6L16 6v4.6l1.7-2-1.4 3.6 1.7-1-2 1.8z"/></g><g><path fill="#F90" d="M18.4 12.2c.1.1.5.2 1 .2s.8-.1 1-.2c0-.1.1-.2.1-.3v-.1c0-.6-.5-1-1.1-1-.6 0-1 .4-1.1 1v.1c.1.1.1.3.1.3z"/><path fill="#539B00" d="M18.9 11l-2.2-1.9 1.5.5-1.4-3.2L18.6 9 18 4.7l1.2 4.6L20 4v4.6l1.7-2-1.4 3.6 1.7-1-2 1.8z"/></g></g><metadata><rdf:RDF xmlns:rdf="http://www.w3.org/1999/02/22-rdf-syntax-ns#" xmlns:rdfs="http://www.w3.org/2000/01/rdf-schema#" xmlns:dc="http://purl.org/dc/elements/1.1/"><rdf:Description about="https://iconscout.com/legal#licenses" dc:title="soil,plant" dc:description="soil,plant" dc:publisher="Iconscout" dc:date="2017-09-20" dc:format="image/svg+xml" dc:language="en"><dc:creator><rdf:Bag><rdf:li>Icograms</rdf:li></rdf:Bag></dc:creator></rdf:Description></rdf:RDF></metadata></svg>